
<svg xmlns="http://www.w3.org/2000/svg" version="1.1" xmlns:xlink="http://www.w3.org/1999/xlink" preserveAspectRatio="none" x="0px" y="0px" width="200px" height="197px" viewBox="0 0 200 197">
<defs>
<g id="Layer0_0_FILL">
<path fill="#3333FF" stroke="none" d="
M 92.3 167.9
Q 100.8 166.95 108.9 165.8 117.35 164.6 125.4 164.6 136 164.6 133.9 156.55 133.95 155.85 133.9 155.85 114.45 156 90.85 159.9 90.85 160.1 90.9 160.35 91.65 164.05 92.3 167.9
M 58.2 140.25
Q 54.65 140 51.1 140 51.1 140.25 51.1 140.5 50.9 140.5 50.65 140.55 30.2 144.2 25.55 163.65 25.55 164.85 25.55 166.05 25.55 166.25 25.55 166.5 25.35 166.5 25.1 166.5 25.1 170.05 25.35 173.55 25.35 173.6 25.55 173.6 31.45 201.95 63.2 195.95 71.65 194.35 76.85 188.45 81.95 182.65 83.3 173.1
L 83.5 173.1
Q 84.1 168.75 83.3 165.55 83.3 165.3 83.25 165.1 79.3 144.2 58.2 140.5
L 58.2 140.25
M 61.7 151.15
Q 75.1 154.55 73.5 172 71.8 190.5 51.65 188.75 33.25 187.15 33.6 166.05 38.65 145.4 61.7 151.15
M 58.45 31.15
Q 59.05 27.05 58.2 24.1 55.3 5.5 38.9 1.6 7.8 -5.85 0.5 21.75 0.5 22.7 0.5 23.6 0.5 23.85 0.5 24.1 0.25 24.1 0 24.1 0 27.9 0.25 31.65
L 0.5 31.65
Q 4.35 52.6 25.55 56.2 25.8 56.25 26.05 56.25 29 57.1 33.1 56.5 33.15 56.5 33.15 56.25 54.25 52.55 58.15 31.65 58.2 31.45 58.2 31.2 58.45 31.2 58.45 31.15
M 14.05 42.75
Q 7.85 36.8 8.55 24.1 13.5 3.4 36.65 9.1 45.5 11.3 47.65 20.1 53.25 43.2 32.4 46.6 20.2 48.6 14.05 42.75
M 126.35 78.05
Q 126.8 75.15 122.1 72.85 117.35 74.8 112.7 81.55 93.6 109.35 73.35 136.2 73.35 136.45 73.45 136.55 76.5 139.2 79.95 141.45 83.1 137 86.25 132.65 106.1 105.4 126.35 78.5 126.35 78.25 126.35 78.05
M 81.8 39.4
Q 89.95 40.4 98.4 42.9 108.3 45.8 109.3 37.8 109.35 37.1 108.95 36.8 104.75 32.9 94.7 32 85.65 31.2 76.6 28.7 66.1 25.8 65.8 35.9 72.85 38.3 81.8 39.4
M 164.2 115.9
Q 168.2 115.5 166.65 110.5 163.35 100.15 162.35 89.25 161.3 77.6 150.95 81.35 153.1 95 154.8 107.6 156.2 118.5 164.2 115.9
M 194.55 136.25
Q 190.2 129.1 181.75 127.05 150.5 119.4 142.45 146.15 142.45 147.6 142.45 149 142.45 149.25 142.45 149.45 142.2 149.45 141.95 149.45 141.95 153 142.2 156.55
L 142.45 156.55
Q 146.25 177.8 167.5 181.6 167.75 181.65 168 181.65 170.7 182.45 174.6 181.9
L 174.6 181.65
Q 187.15 179.75 193.4 171.6 206 155.05 194.55 136.25
M 179.35 135.05
Q 187.65 137.35 189.95 146 194.5 163.55 182 170 166.2 178.1 155.2 166.5 149.65 160.7 150.45 148.5 156.15 128.55 179.35 135.05
M 172.75 54.7
Q 179.1 35.45 166.95 23.2 160.6 16.8 149.55 15.1 149.55 14.85 149.5 14.85 146.2 14.65 142.9 14.65 142.9 14.85 142.9 15.1 142.65 15.1 142.45 15.15 121.7 19 117.35 39.25 117.4 39.95 117.35 40.65 117.35 40.9 117.35 41.15 117.1 41.15 116.9 41.15 116.9 44.45 117.1 47.75
L 117.35 47.75
Q 122.8 76.55 154.45 70.5 168.4 67.8 172.75 54.7
M 125.4 40.2
Q 132.2 18.7 155.6 27.05 168.15 31.5 165.45 48.55 163.2 62.65 148.1 64.8 147.85 64.8 147.65 64.8 145.95 64.8 144.3 64.8 144.1 64.8 143.85 64.75 125.1 62 125.4 40.2 Z"/>
</g>
</defs>

<g transform="matrix( 1, 0, 0, 1, 0,0) ">
<use xlink:href="#Layer0_0_FILL"/>
</g>
</svg>
