
<svg xmlns="http://www.w3.org/2000/svg" version="1.1" xmlns:xlink="http://www.w3.org/1999/xlink" preserveAspectRatio="none" x="0px" y="0px" width="200px" height="197px" viewBox="0 0 200 197">
<defs>
<g id="Layer0_0_FILL">
<path fill="#00FF00" stroke="none" d="
M 1048.5 662.95
Q 1048.5 663 1049 663 1057.1 707.9 1102 715.9 1102.5 716 1103 716 1108.8 717.75 1116.95 716.5 1117 716.5 1117 716 1143.5 712 1156.7 694.75 1183.4 659.8 1159.2 620.1 1150 605 1132.1 600.6 1066.05 584.4 1049 641 1049 644 1049 647 1049 647.5 1049 648 1048.5 648 1048 648 1048 655.5 1048.5 662.95
M 1075.95 684
Q 1064.3 671.7 1066 646 1078.05 603.75 1127.05 617.5 1144.6 622.4 1149.4 640.7 1159.05 677.75 1132.65 691.35 1099.25 708.55 1075.95 684
M 1091.15 520.7
Q 1088.9 496.05 1067 504 1071.6 532.9 1075.1 559.5 1078.15 582.55 1095 577 1103.5 576.15 1100.2 565.6 1093.25 543.75 1091.15 520.7
M 940 670
Q 940 670.5 940.1 671 941.7 678.8 943 687 961 685 978.1 682.55 996 680 1013 679.95 1035.4 679.95 1031 663 1031.05 661.5 1031 661.5 989.85 661.85 940 670
M 917 631
Q 923.65 621.65 930.3 612.5 972.25 554.8 1015 498 1015 497.5 1015.05 497 1015.95 490.9 1006 486 996 490.15 986.2 504.45 945.8 563.25 903 620 903 620.5 903.25 620.7 909.7 626.25 917 631
M 802 683
Q 802 683.5 802 684 801.5 684 801 684 801 691.5 801.5 698.95 801.5 699 802 699 814.4 758.95 881.5 746.3 899.4 742.9 910.4 730.35 921.15 718.15 924 698 924.5 698 924.5 697.95 925.75 688.75 924 682 924 681.5 923.9 681 915.6 636.9 871 629 871 628.5 870.95 628.5 863.5 628 856 628 856 628.5 856 629 855.5 629 855 629.1 811.85 636.85 802 678 802 680.5 802 683
M 819 683
Q 829.7 639.4 878.35 651.6 906.75 658.75 903.35 695.65 899.75 734.75 857.15 731.05 818.3 727.7 819 683
M 920.85 415.35
Q 938.05 417.45 955.9 422.7 976.85 428.9 979 412 979.05 410.5 978.25 409.8 969.35 401.6 948.1 399.7 928.95 398.05 909.9 392.75 887.7 386.65 887 408 901.95 413.05 920.85 415.35
M 749 382
Q 749 382.5 749 383 748.5 383 748 383 748 391 748.5 398.95 748.5 399 749 399 757.2 443.3 802 450.9 802.5 451 803 451 809.25 452.75 817.95 451.5 818 451.5 818 451 862.65 443.15 870.9 399 871 398.5 871 398 871.5 398 871.5 397.95 872.75 389.25 871 383 864.8 343.7 830.2 335.45 764.5 319.75 749 378 749 380 749 382
M 825.45 351.3
Q 844.1 355.9 848.65 374.6 860.55 423.35 816.45 430.6 790.65 434.8 777.7 422.4 764.6 409.9 766 383 776.55 339.25 825.45 351.3
M 1050 364
Q 1049.5 364 1049 364.1 1005.2 372.2 996 415 996.05 416.5 996 418 996 418.5 996 419 995.5 419 995 419 995 426 995.5 432.95 995.5 433 996 433 1007.5 493.85 1074.45 481.05 1103.9 475.4 1113.05 447.7 1126.55 407 1100.85 381.15 1087.4 367.6 1064 364 1064 363.5 1063.95 363.5 1057 363 1050 363 1050 363.5 1050 364
M 1060 469
Q 1056.45 469 1053 469 1052.5 469 1052 468.95 1012.35 463.15 1013 417 1027.35 371.55 1076.85 389.2 1103.35 398.65 1097.65 434.65 1092.95 464.45 1061 469 1060.5 469 1060 469 Z"/>
</g>
</defs>

<g transform="matrix( 0.47314453125, 0, 0, 0.4730987548828125, -353.9,-157.1) ">
<use xlink:href="#Layer0_0_FILL"/>
</g>
</svg>
